<svg width="112" height="112" viewBox="0 0 112 112" fill="none" xmlns="http://www.w3.org/2000/svg">
<path d="M84.4655 79.931H85.9655V78.431V57.9138H82.9655V76.931H28.0345V40.1034H63.3448V37.1034H26.5345H25.0345V38.6034V78.431V79.931H26.5345H84.4655ZM54.705 62.8065L55.6227 63.38L56.4564 62.6901L89 35.7574V41.6207H92V33.2746L94.6652 31.069H90.5H80.2414L80.1639 34.067L85.9741 34.3675L55.3773 59.6889L36.9847 48.1935L35.3947 50.7375L54.705 62.8065ZM106.5 55.5C106.5 83.6665 83.6665 106.5 55.5 106.5C27.3335 106.5 4.5 83.6665 4.5 55.5C4.5 27.3335 27.3335 4.5 55.5 4.5C83.6665 4.5 106.5 27.3335 106.5 55.5Z" stroke="url(#paint0_linear_1434_12)" stroke-width="3"/>
<defs>
<linearGradient id="paint0_linear_1434_12" x1="120.672" y1="-0.017238" x2="-33.2069" y2="94.7241" gradientUnits="userSpaceOnUse">
<stop stop-color="#FF7C11"/>
<stop offset="1" stop-color="#EA2222"/>
</linearGradient>
</defs>
</svg>
